<svg width="24" height="24" viewBox="0 0 24 24" fill="none" xmlns="http://www.w3.org/2000/svg">
<g filter="url(#filter0_d_99_19)">
<path d="M9 3.5C9 3.22386 9.22386 3 9.5 3H14.5C14.7761 3 15 3.22386 15 3.5V4H9V3.5Z" fill="url(#paint0_linear_99_19)"/>
</g>
<rect x="4" y="4" width="16" height="2" rx="0.5" fill="url(#paint1_linear_99_19)"/>
<rect x="5" y="6" width="2" height="14" fill="url(#paint2_linear_99_19)"/>
<rect x="17" y="6" width="2" height="14" fill="url(#paint3_linear_99_19)"/>
<path d="M5 20H19V20.5C19 20.7761 18.7761 21 18.5 21H5.5C5.22386 21 5 20.7761 5 20.5V20Z" fill="url(#paint4_linear_99_19)"/>
<path d="M6 21H18V21.7C18 21.8657 17.8657 22 17.7 22H6.3C6.13432 22 6 21.8657 6 21.7V21Z" fill="url(#paint5_linear_99_19)"/>
<rect x="9" y="8" width="2" height="10" fill="url(#paint6_linear_99_19)"/>
<rect x="13" y="8" width="2" height="10" fill="url(#paint7_linear_99_19)"/>
<defs>
<filter id="filter0_d_99_19" x="5" y="3" width="14" height="9" filterUnits="userSpaceOnUse" color-interpolation-filters="sRGB">
<feFlood flood-opacity="0" result="BackgroundImageFix"/>
<feColorMatrix in="SourceAlpha" type="matrix" values="0 0 0 0 0 0 0 0 0 0 0 0 0 0 0 0 0 0 127 0" result="hardAlpha"/>
<feOffset dy="4"/>
<feGaussianBlur stdDeviation="2"/>
<feComposite in2="hardAlpha" operator="out"/>
<feColorMatrix type="matrix" values="0 0 0 0 0 0 0 0 0 0 0 0 0 0 0 0 0 0 0.25 0"/>
<feBlend mode="normal" in2="BackgroundImageFix" result="effect1_dropShadow_99_19"/>
<feBlend mode="normal" in="SourceGraphic" in2="effect1_dropShadow_99_19" result="shape"/>
</filter>
<linearGradient id="paint0_linear_99_19" x1="9" y1="3.5" x2="15" y2="3.5" gradientUnits="userSpaceOnUse">
<stop stop-color="#E4FDE1"/>
<stop offset="0.9999" stop-color="#8C9B8A"/>
<stop offset="1" stop-color="#889786"/>
</linearGradient>
<linearGradient id="paint1_linear_99_19" x1="4" y1="5" x2="20" y2="5" gradientUnits="userSpaceOnUse">
<stop stop-color="#E4FDE1"/>
<stop offset="0.9999" stop-color="#8C9B8A"/>
<stop offset="1" stop-color="#889786"/>
</linearGradient>
<linearGradient id="paint2_linear_99_19" x1="5" y1="13" x2="7" y2="13" gradientUnits="userSpaceOnUse">
<stop stop-color="#E4FDE1"/>
<stop offset="0.9999" stop-color="#8C9B8A"/>
<stop offset="1" stop-color="#889786"/>
</linearGradient>
<linearGradient id="paint3_linear_99_19" x1="17" y1="13" x2="19" y2="13" gradientUnits="userSpaceOnUse">
<stop stop-color="#E4FDE1"/>
<stop offset="0.9999" stop-color="#8C9B8A"/>
<stop offset="1" stop-color="#889786"/>
</linearGradient>
<linearGradient id="paint4_linear_99_19" x1="5" y1="20.5" x2="19" y2="20.5" gradientUnits="userSpaceOnUse">
<stop stop-color="#E4FDE1"/>
<stop offset="0.9999" stop-color="#8C9B8A"/>
<stop offset="1" stop-color="#889786"/>
</linearGradient>
<linearGradient id="paint5_linear_99_19" x1="6" y1="21.5" x2="18" y2="21.5" gradientUnits="userSpaceOnUse">
<stop stop-color="#E4FDE1"/>
<stop offset="0.9999" stop-color="#8C9B8A"/>
<stop offset="1" stop-color="#889786"/>
</linearGradient>
<linearGradient id="paint6_linear_99_19" x1="9" y1="13" x2="11" y2="13" gradientUnits="userSpaceOnUse">
<stop stop-color="#E4FDE1"/>
<stop offset="0.9999" stop-color="#8C9B8A"/>
<stop offset="1" stop-color="#889786"/>
</linearGradient>
<linearGradient id="paint7_linear_99_19" x1="13" y1="13" x2="15" y2="13" gradientUnits="userSpaceOnUse">
<stop stop-color="#E4FDE1"/>
<stop offset="0.9999" stop-color="#8C9B8A"/>
<stop offset="1" stop-color="#889786"/>
</linearGradient>
</defs>
</svg>
