<svg width="24" height="24" viewBox="0 0 24 24" fill="none" xmlns="http://www.w3.org/2000/svg">
<path d="M18 3H16.5H16C15.7239 3 15.5 3.22386 15.5 3.5C15.5 3.77614 15.2761 4 15 4C14.7239 4 14.5 4.22386 14.5 4.5C14.5 4.77614 14.2761 5 14 5C13.7239 5 13.5 5.22386 13.5 5.5C13.5 5.77614 13.2761 6 13 6C12.7239 6 12.5 6.22386 12.5 6.5C12.5 6.77614 12.2761 7 12 7C11.7239 7 11.5 7.22386 11.5 7.5C11.5 7.77614 11.2761 8 11 8C10.7239 8 10.5 8.22386 10.5 8.5C10.5 8.77614 10.2761 9 10 9C9.72386 9 9.5 9.22386 9.5 9.5C9.5 9.77614 9.27614 10 9 10C8.72386 10 8.5 10.2239 8.5 10.5C8.5 10.7761 8.27614 11 8 11C7.72386 11 7.5 11.2239 7.5 11.5C7.5 11.7761 7.27614 12 7 12C6.72386 12 6.5 12.2239 6.5 12.5C6.5 12.7761 6.27614 13 6 13C5.72386 13 5.5 13.2239 5.5 13.5C5.5 13.7761 5.27614 14 5 14C4.72386 14 4.5 14.2239 4.5 14.5C4.5 14.7761 4.27614 15 4 15C3.72386 15 3.5 15.2239 3.5 15.5V15.75C3.5 15.8881 3.38807 16 3.25 16C3.11193 16 3 16.1119 3 16.25V20C3 20.5523 3.44772 21 4 21H7C7.27614 21 7.5 20.7761 7.5 20.5C7.5 20.2239 7.72386 20 8 20C8.27614 20 8.5 19.7761 8.5 19.5C8.5 19.2239 8.72386 19 9 19C9.27614 19 9.5 18.7761 9.5 18.5C9.5 18.2239 9.72386 18 10 18C10.2761 18 10.5 17.7761 10.5 17.5C10.5 17.2239 10.7239 17 11 17C11.2761 17 11.5 16.7761 11.5 16.5C11.5 16.2239 11.7239 16 12 16C12.2761 16 12.5 15.7761 12.5 15.5C12.5 15.2239 12.7239 15 13 15C13.2761 15 13.5 14.7761 13.5 14.5C13.5 14.2239 13.7239 14 14 14C14.2761 14 14.5 13.7761 14.5 13.5C14.5 13.2239 14.7239 13 15 13C15.2761 13 15.5 12.7761 15.5 12.5C15.5 12.2239 15.7239 12 16 12C16.2761 12 16.5 11.7761 16.5 11.5C16.5 11.2239 16.7239 11 17 11C17.2761 11 17.5 10.7761 17.5 10.5C17.5 10.2239 17.7239 10 18 10C18.2761 10 18.5 9.77614 18.5 9.5C18.5 9.22386 18.7239 9 19 9C19.2761 9 19.5 8.77614 19.5 8.5C19.5 8.22386 19.7239 8 20 8C20.2761 8 20.5 7.77614 20.5 7.5V5.5C20.5 5.22386 20.2761 5 20 5C19.7239 5 19.5 4.77614 19.5 4.5C19.5 4.22386 19.2761 4 19 4C18.7239 4 18.5 3.77614 18.5 3.5C18.5 3.22386 18.2761 3 18 3Z" stroke="url(#paint0_linear_99_48)"/>
<path d="M4 19V16.5V16C4 15.7239 4.22386 15.5 4.5 15.5C4.77614 15.5 5 15.2761 5 15C5 14.7239 5.22386 14.5 5.5 14.5C5.77614 14.5 6 14.2761 6 14C6 13.7239 6.22386 13.5 6.5 13.5C6.77614 13.5 7 13.2761 7 13C7 12.7239 7.22386 12.5 7.5 12.5C7.77614 12.5 8 12.2761 8 12C8 11.7239 8.22386 11.5 8.5 11.5C8.77614 11.5 9 11.2761 9 11C9 10.7239 9.22386 10.5 9.5 10.5C9.77614 10.5 10 10.2761 10 10C10 9.72386 10.2239 9.5 10.5 9.5C10.7761 9.5 11 9.27614 11 9C11 8.72386 11.2239 8.5 11.5 8.5C11.7761 8.5 12 8.27614 12 8C12 7.72386 12.2239 7.5 12.5 7.5C12.7761 7.5 13 7.27614 13 7C13 6.72386 13.2239 6.5 13.5 6.5C13.7761 6.5 14 6.27614 14 6C14 5.72386 14.2239 5.5 14.5 5.5C14.7761 5.5 15 5.27614 15 5C15 4.72386 15.2239 4.5 15.5 4.5C15.7761 4.5 16 4.27614 16 4C16 3.72386 16.2239 3.5 16.5 3.5H17.5C17.7761 3.5 18 3.72386 18 4C18 4.27614 18.2239 4.5 18.5 4.5C18.7761 4.5 19 4.72386 19 5C19 5.27614 19.2239 5.5 19.5 5.5C19.7761 5.5 20 5.72386 20 6V7C20 7.27614 19.7761 7.5 19.5 7.5C19.2239 7.5 19 7.72386 19 8C19 8.27614 18.7761 8.5 18.5 8.5C18.2239 8.5 18 8.72386 18 9C18 9.27614 17.7761 9.5 17.5 9.5C17.2239 9.5 17 9.72386 17 10C17 10.2761 16.7761 10.5 16.5 10.5C16.2239 10.5 16 10.7239 16 11C16 11.2761 15.7761 11.5 15.5 11.5C15.2239 11.5 15 11.7239 15 12C15 12.2761 14.7761 12.5 14.5 12.5C14.2239 12.5 14 12.7239 14 13C14 13.2761 13.7761 13.5 13.5 13.5C13.2239 13.5 13 13.7239 13 14C13 14.2761 12.7761 14.5 12.5 14.5C12.2239 14.5 12 14.7239 12 15C12 15.2761 11.7761 15.5 11.5 15.5C11.2239 15.5 11 15.7239 11 16C11 16.2761 10.7761 16.5 10.5 16.5C10.2239 16.5 10 16.7239 10 17C10 17.2761 9.77614 17.5 9.5 17.5C9.22386 17.5 9 17.7239 9 18C9 18.2761 8.77614 18.5 8.5 18.5C8.22386 18.5 8 18.7239 8 19C8 19.2761 7.77614 19.5 7.5 19.5C7.22386 19.5 7 19.7239 7 20C7 20.2761 6.77614 20.5 6.5 20.5H5.5C4.67157 20.5 4 19.8284 4 19Z" fill="url(#paint1_linear_99_48)" stroke="url(#paint2_linear_99_48)"/>
<path d="M12.5 9L14.5 11L15.5 12L11.5 8" stroke="url(#paint3_linear_99_48)"/>
<defs>
<linearGradient id="paint0_linear_99_48" x1="11.75" y1="3" x2="11.75" y2="21" gradientUnits="userSpaceOnUse">
<stop stop-color="#E4FDE1"/>
<stop offset="1" stop-color="#889786"/>
</linearGradient>
<linearGradient id="paint1_linear_99_48" x1="12" y1="3.5" x2="12" y2="20.5" gradientUnits="userSpaceOnUse">
<stop stop-color="#E4FDE1"/>
<stop offset="0.435" stop-color="#E0F9DD"/>
<stop offset="1" stop-color="#889786"/>
</linearGradient>
<linearGradient id="paint2_linear_99_48" x1="12" y1="3.5" x2="12" y2="20.5" gradientUnits="userSpaceOnUse">
<stop stop-color="#E4FDE1"/>
<stop offset="1" stop-color="#889786"/>
</linearGradient>
<linearGradient id="paint3_linear_99_48" x1="13.5" y1="8" x2="13.5" y2="12" gradientUnits="userSpaceOnUse">
<stop stop-color="#E4FDE1"/>
<stop offset="1" stop-color="#889786"/>
</linearGradient>
</defs>
</svg>
